<?xml version="1.0" encoding="UTF-8" standalone="no"?>

<svg
   width="121.30624mm"
   height="64.553429mm"
   viewBox="0 0 121.30624 64.553428"
   version="1.1"
   id="svg5"
   xml:space="preserve"
   inkscape:version="1.2.1 (9c6d41e410, 2022-07-14)"
   sodipodi:docname="rust-crab.svg"
   xmlns:inkscape="http://www.inkscape.org/namespaces/inkscape"
   xmlns:sodipodi="http://sodipodi.sourceforge.net/DTD/sodipodi-0.dtd"
   xmlns="http://www.w3.org/2000/svg"
   xmlns:svg="http://www.w3.org/2000/svg">
   <sodipodi:namedview
     id="namedview7"
     pagecolor="#505050"
     bordercolor="#ffffff"
     borderopacity="1"
     inkscape:showpageshadow="0"
     inkscape:pageopacity="0"
     inkscape:pagecheckerboard="1"
     inkscape:deskcolor="#505050"
     inkscape:document-units="mm"
     showgrid="false"
     inkscape:zoom="2.0510461"
     inkscape:cx="168.6944"
     inkscape:cy="186.97775"
     inkscape:window-width="1920"
     inkscape:window-height="1001"
     inkscape:window-x="-9"
     inkscape:window-y="-9"
     inkscape:window-maximized="1"
     inkscape:current-layer="layer3" />
     <defs id="defs2" />
     <g
     inkscape:groupmode="layer"
     id="layer3"
     inkscape:label="ferris"
     style="fill:#1a1a1a"
     transform="translate(0.16667273,-8.6145802)">
      <path
       id="path306-7"
       style="fill:#000000;display:inline;stroke-width:0.264583"
       inkscape:label="outline"
       d="m 61.248047,9.5097656 c -1.392084,-0.033151 -2.032836,1.4300494 -2.66,2.4315474 -0.484218,0.704936 -0.76587,1.656667 -1.513828,2.134859 -1.102343,-0.517853 -1.755427,-1.668039 -2.658112,-2.460603 -0.733203,-0.709244 -1.791307,-1.7522704 -2.880951,-1.148772 -0.84533,0.619032 -0.978377,1.777689 -1.392408,2.679866 -0.369433,0.885235 -0.572123,1.90634 -1.12517,2.679509 -1.386368,-0.419155 -2.403803,-1.580189 -3.6535,-2.283553 -0.622315,-0.452568 -1.514719,-0.887495 -2.196109,-0.290666 -1.095321,1.033649 -1.048646,2.701625 -1.337606,4.06582 -0.153968,0.636287 -0.148367,1.45275 -0.707316,1.887305 -1.645632,-0.462094 -3.041466,-1.650845 -4.736328,-1.96875 -1.091681,-0.02449 -1.830619,1.11235 -1.794922,2.125 -0.14287,1.478091 0.125556,3.006731 -0.225797,4.45394 -0.512417,0.306239 -1.215232,-0.06175 -1.781245,-0.127494 -1.197362,-0.185987 -2.387269,-0.75085 -3.610146,-0.582305 -0.971297,0.412062 -1.347396,1.64858 -1.074411,2.621085 0.179228,1.380099 0.767037,2.729021 0.699213,4.125976 -0.427097,0.397121 -1.17361,0.225685 -1.727529,0.288229 -1.240354,0.0931 -2.570374,-0.196062 -3.741023,0.306507 -0.806207,0.535922 -1.119032,1.633058 -0.652482,2.500505 0.452166,1.37129 1.299038,2.639996 1.478554,4.083692 -0.170315,0.504629 -0.918283,0.470601 -1.350088,0.622005 -1.377834,0.344557 -3.011906,0.311316 -4.098687,1.343478 -0.786009,0.975275 0.01768,2.226147 0.562068,3.109313 0.543287,0.92581 1.306004,1.765391 1.728604,2.733585 -0.213101,0.443603 -0.62671,0.24286 -0.957217,0.05804 -1.608463,-0.764214 -3.238391,-1.596201 -4.490049,-2.89202 1.522824,-2.172829 2.69923,-4.687951 2.966797,-7.351562 0.340228,-3.589063 -1.644351,-7.040536 -4.461307,-9.145958 C 12.520418,24.50494 11.160221,23.44836 9.5878906,22.847656 9.050825,22.637547 8.5486687,23.100834 8.6847829,23.646745 8.9648482,27.236401 9.614846,30.782427 10.011719,34.349609 8.7594575,33.118495 7.8713773,31.646236 6.9723493,30.098985 6.421962,29.167116 5.9436536,28.183445 5.8211815,27.098804 5.621479,26.249977 5.3665156,25.415655 5.1386719,24.574219 c -1.7674796,1.703152 -3.7308963,3.450442 -4.38951363,5.915393 -0.71780439,2.233546 -0.0462336,4.697549 1.39065583,6.495811 1.7725922,2.383027 4.3068848,4.044871 6.9129203,5.389577 0.9533156,0.510066 1.1975576,1.645232 1.9712176,2.34362 1.579103,1.81105 3.57032,3.182043 5.561986,4.496224 -1.087694,1.421388 -2.658316,2.518567 -3.361329,4.205078 -0.459576,1.427552 0.721009,2.641787 1.629981,3.576091 4.887131,5.155575 9.883702,10.211701 14.969629,15.168049 0.347273,0.600443 1.294048,0.218744 1.175781,-0.447265 -0.304184,-1.654183 -1.22927,-3.122356 -2.006862,-4.591621 -1.311497,-2.195611 -2.890639,-4.21915 -4.168919,-6.437676 -1.10211,-1.937782 -2.378546,-3.932295 -3.121094,-6.089844 -0.194211,-0.319044 0.49022,-1.064505 0.570313,-0.476562 2.276336,3.292513 4.952163,6.283592 7.380415,9.464084 0.815576,0.96025 1.509352,2.064456 2.467241,2.883572 0.674967,0.648521 0.816267,0.06641 0.787109,-0.617188 -0.690594,-2.491306 -2.005952,-4.750561 -3.233255,-7.008794 -0.551961,-1.057886 -1.094688,-2.120288 -1.606589,-3.198237 6.20291,3.01002 13.053053,4.340679 19.837851,5.259957 9.717146,1.205345 19.61011,1.357859 29.31727,-0.02191 6.401229,-0.995556 12.781321,-2.653872 18.559875,-5.640628 0.574044,-0.29709 1.128867,-0.627198 1.683442,-0.958745 -1.325841,3.697795 -3.297778,7.129594 -4.537291,10.857856 -0.127841,0.409435 -0.337594,1.064967 0.05268,1.33495 0.77633,0.252591 1.131974,-0.687372 1.545352,-1.169997 2.501109,-3.732045 5.096721,-7.404177 7.474411,-11.216168 0.43427,0.40329 -0.0233,1.086976 -0.056,1.586589 -1.05715,3.949024 -2.808721,7.530315 -4.369728,11.288411 -0.593789,1.597742 -1.18556,3.274418 -1.171875,4.996094 0.08501,0.590598 0.826673,0.711706 1.144531,0.220703 1.335967,-1.747023 2.457152,-3.652445 3.757842,-5.428375 2.69163,-3.957804 5.58757,-7.787179 8.04099,-11.89975 0.52986,-0.975061 1.28961,-2.353886 0.38086,-3.337891 -1.26654,-1.352964 -2.84415,-2.352971 -4.31055,-3.46875 1.49219,-1.561069 2.92079,-3.183708 4.23828,-4.892578 1.79909,-1.786632 4.08931,-2.983824 5.85225,-4.816515 2.73306,-2.605766 4.87487,-6.194895 4.68962,-10.082505 -0.0922,-1.893147 -0.62008,-3.797406 -1.5946,-5.423246 -0.396,-0.54964 -1.07166,-0.02005 -1.19812,0.485348 -0.77988,1.946663 -1.31587,4.032326 -2.57337,5.75098 -0.80249,1.048238 -1.85226,2.154564 -2.98047,2.972657 -0.10191,-3.052052 0.0146,-6.124919 0.41795,-9.153097 0.0443,-0.699858 0.82657,-1.585062 0.0918,-2.149638 -1.09429,-0.121904 -2.0331,0.676886 -2.9637,1.142862 -2.7247,1.658406 -5.42145,3.75297 -6.64601,6.803932 -0.75605,1.584424 -0.43192,3.404597 -0.23129,5.077255 0.35533,2.222789 1.62005,4.148101 3.01873,5.858764 -0.63355,1.707354 -2.08835,2.913396 -3.32788,4.181179 -0.35128,0.313454 0.39882,-0.655984 0.50757,-0.847195 0.69289,-1.105227 1.70251,-2.37404 1.33203,-3.759766 -0.42531,-1.065509 -1.76412,-0.983484 -2.69424,-1.247502 -0.98975,-0.253627 -2.1474,-0.169348 -3.001071,-0.766169 -0.0051,-1.086287 0.69143,-2.051561 1.052162,-3.05669 0.355651,-0.972196 1.137109,-2.187276 0.39901,-3.165967 -0.837156,-1.046555 -2.348831,-0.711235 -3.520171,-0.811399 -0.837964,-0.07588 -1.794101,0.151277 -2.554048,-0.245241 -0.0799,-1.32422 0.460759,-2.608683 0.676553,-3.906848 0.162621,-0.926364 0.753605,-2.203807 -0.149209,-2.931043 -0.907294,-0.509361 -1.932172,0.155929 -2.864096,0.265343 -1.13278,0.193694 -2.262382,0.724426 -3.423014,0.595985 -0.424808,-1.04774 -0.162124,-2.250875 -0.254314,-3.363988 -0.03392,-1.125704 0.09754,-2.635724 -1.101154,-3.227809 -1.04528,-0.345332 -2.02277,0.46835 -2.965875,0.809752 -0.849244,0.319244 -1.67053,0.958257 -2.594672,0.932436 -0.654701,-1.218424 -0.570737,-2.688528 -0.902293,-4.01454 -0.148819,-0.90999 -0.638852,-2.144104 -1.750051,-2.069444 -1.634112,0.240042 -2.795505,1.585746 -4.155621,2.404806 -0.31801,0.164208 -0.789949,0.740846 -1.027973,0.167459 -0.882789,-1.530501 -1.158516,-3.369435 -2.158837,-4.830199 -0.708369,-0.8308511 -1.891767,-0.314226 -2.535701,0.32304 -1.122839,0.872655 -1.906301,2.13651 -3.106243,2.90755 -0.517295,0.0913 -0.748293,-0.656225 -1.036252,-0.96852 C 63.619802,11.910652 63.157694,10.54456 62.083639,9.7170285 61.839964,9.5531591 61.536168,9.5055463 61.248047,9.5097656 Z" /><path
       style="display:inline;fill:#a52b00;stroke-width:0.264583"
       d="m 66.607022,126.99122 c -1.040723,-1.33719 -3.099446,-3.91954 -4.574939,-5.73855 -1.475493,-1.81901 -2.86853,-3.65737 -3.095638,-4.08525 -0.393293,-0.74097 -0.383614,-0.80169 0.203605,-1.27719 0.723996,-0.58625 0.8225,-0.56806 4.50902,0.83274 10.567604,4.01548 23.464958,6.37306 34.892201,6.37815 10.999179,0.005 21.443839,-2.05783 30.823959,-6.08746 3.07887,-1.32266 4.43587,-1.66004 5.78448,-1.43815 1.4248,0.23443 2.81448,0.81263 2.81448,1.171 0,0.15584 -1.394,2.3348 -3.09777,4.84215 -1.70377,2.50734 -3.60877,5.32713 -4.23333,6.26619 -0.62457,0.93906 -1.13557,1.58278 -1.13557,1.43048 0,-0.54508 1.02868,-3.18287 2.25093,-5.7719 1.23184,-2.60937 2.77615,-6.41085 2.77615,-6.83378 0,-0.12071 -0.50601,0.0953 -1.12448,0.47998 -4.76094,2.96144 -12.49209,5.45253 -20.43906,6.58579 -16.137032,2.30118 -37.438971,0.0905 -47.823436,-4.96297 -0.982266,-0.47801 -1.785938,-0.77022 -1.785938,-0.64936 0,0.28848 2.124843,4.51351 3.111471,6.18684 0.804048,1.36367 2.28499,4.85364 2.12675,5.01188 -0.04986,0.0499 -0.94216,-1.0034 -1.982885,-2.34059 z"
       id="path306"
       transform="translate(-36.199884,-63.372944)"
       sodipodi:nodetypes="ssssscsssssssscsssscs"
       inkscape:label="leg-shadow" /><path
       id="path943"
       style="display:inline;fill:#f64b00;stroke-width:0.264583"
       d="m 97.498984,73.363032 c -0.869378,0 -1.221066,0.372118 -2.541447,2.692859 -1.417071,2.490679 -1.703168,2.496592 -3.911906,0.07906 -1.814613,-1.986143 -2.669306,-2.413708 -3.291789,-1.647445 -0.14777,0.181901 -0.598614,1.283233 -1.002006,2.447396 -0.403389,1.164164 -0.847184,2.265495 -0.986503,2.447396 -0.455816,0.595132 -1.125113,0.352308 -3.099036,-1.124479 -1.06979,-0.800365 -2.14402,-1.455209 -2.386934,-1.455209 -0.830384,0 -1.275183,0.899111 -1.601969,3.235978 -0.228944,1.637165 -0.469502,2.441737 -0.82579,2.764173 -0.479155,0.433629 -0.607117,0.403252 -2.742468,-0.655774 -2.526352,-1.252941 -2.664695,-1.281072 -3.336231,-0.673344 -0.408631,0.369813 -0.483691,0.858696 -0.483691,3.142961 0,3.508796 -0.01826,3.524673 -3.132109,2.793627 -2.91621,-0.684646 -2.854555,-0.685761 -3.345532,0.06356 -0.367225,0.560461 -0.351532,0.850166 0.168982,3.162598 0.752782,3.344306 0.736748,3.364136 -2.713529,3.364136 -2.473479,0 -2.629271,0.03335 -3.03134,0.646989 -0.403168,0.615312 -0.371834,0.766839 0.63562,3.108854 1.364639,3.172352 1.273733,3.362002 -1.87017,3.917072 -3.650948,0.64458 -3.862459,1.1998 -1.671216,4.38319 1.42389,2.06862 1.437457,2.10661 0.938444,2.60863 -0.499618,0.50264 -0.532961,0.4963 -2.495971,-0.47387 -1.094174,-0.54077 -2.420652,-1.39026 -2.948141,-1.88774 l -0.959114,-0.90434 0.557588,-0.78342 c 1.000506,-1.40506 2.073822,-3.83546 2.404505,-5.444105 0.673346,-3.275587 -0.31476,-6.312881 -2.89388,-8.892997 -1.484568,-1.485136 -5.18251,-3.900657 -5.494239,-3.588928 -0.09253,0.09253 0.215262,2.860188 0.684196,6.150529 0.468936,3.290344 0.802824,6.032418 0.742074,6.093168 -0.06075,0.06075 -0.7728,-0.605106 -1.582332,-1.479496 -1.309018,-1.413898 -3.62462,-5.36775 -3.62872,-6.196004 -8.11e-4,-0.16505 -0.129614,-0.761758 -0.286287,-1.326018 l -0.284737,-1.025777 -1.143083,1.121379 c -2.585431,2.537408 -3.39937,5.61957 -2.184879,8.272363 1.123693,2.454476 3.797017,4.908076 7.221264,6.626986 0.787511,0.39531 1.466311,0.95588 1.652613,1.36477 0.532586,1.1689 2.69362,3.27684 4.79919,4.68189 1.100894,0.73462 2.048651,1.3813 2.106331,1.4366 0.05768,0.0553 -0.745991,0.99604 -1.785937,2.09083 -2.076376,2.18589 -2.28431,2.82361 -1.380278,4.23798 0.279041,0.43656 3.999165,4.32572 8.266679,8.64237 4.267515,4.31665 7.84007,7.85875 7.93905,7.87135 0.604094,0.0769 -1.31747,-4.02804 -2.962093,-6.32726 -2.657507,-3.71523 -5.793769,-9.2098 -6.213574,-10.88564 -0.152831,-0.6101 -0.01297,-0.82269 1.099675,-1.67225 1.456774,-1.11233 1.250579,-1.12639 5.15059,0.35554 12.885657,4.89628 29.200028,7.26528 42.036196,6.10453 8.59367,-0.77711 17.42116,-2.96545 23.95822,-5.93969 3.72783,-1.69605 6.094,-1.76524 8.39691,-0.24494 0.94,0.62056 0.9914,0.72247 0.82527,1.64331 -0.30591,1.69567 -1.6993,5.63046 -3.06493,8.65477 -0.72281,1.60073 -1.53956,3.54177 -1.81487,4.31343 -0.60451,1.69435 -1.05339,4.02094 -0.77567,4.02094 0.11049,0 0.59507,-0.62508 1.07642,-1.38906 0.48136,-0.76399 2.37891,-3.53221 4.2168,-6.15156 6.64878,-9.47589 7.57733,-11.02546 7.29103,-12.16619 -0.0839,-0.33439 -1.16804,-1.33371 -2.55023,-2.35127 l -2.40451,-1.77044 1.77354,-1.90996 c 0.9754,-1.05067 2.0721,-2.35895 2.43706,-2.90731 0.36497,-0.54838 1.62865,-1.66954 2.80809,-2.49133 6.90449,-4.810776 9.42795,-10.353383 7.30137,-16.037257 -0.30844,-0.824371 -0.65877,-1.559135 -0.77825,-1.632975 -0.11947,-0.07384 -0.52737,0.861605 -0.90692,2.078943 -0.38958,1.249516 -1.16837,2.92922 -1.78801,3.857129 -1.02257,1.531315 -3.36678,3.712952 -3.98942,3.712952 -0.44643,0 -0.11015,-9.144052 0.38706,-10.525973 0.40309,-1.120343 0.40121,-1.131846 -0.15968,-0.959115 -1.22331,0.376734 -4.20445,2.313009 -5.71541,3.711919 -1.04856,0.970781 -1.87277,2.046813 -2.42156,3.161564 -0.77469,1.573688 -0.82373,1.840195 -0.71624,3.878316 0.12938,2.453057 0.8087,4.254519 2.37402,6.292637 l 0.91674,1.19321 -0.47749,1.09554 c -0.44423,1.01871 -3.93041,4.58732 -4.48138,4.58732 -0.50317,0 -0.17552,-0.77207 1.09037,-2.56884 1.42282,-2.0195 1.71631,-3.29498 0.8599,-3.73672 -0.25466,-0.13136 -1.45456,-0.39675 -2.66651,-0.58963 -3.09435,-0.49246 -3.19795,-0.69538 -1.87275,-3.68091 1.15184,-2.594975 1.21558,-2.961947 0.61753,-3.55999 -0.32144,-0.321444 -1.00425,-0.415995 -3.01015,-0.415995 -3.40839,0 -3.39875,0.0122 -2.6231,-3.427181 l 0.60152,-2.667538 c 0.15405,-0.968754 -0.19153,-1.367886 -1.11208,-1.11156 l -2.52233,0.608232 c -3.3378,0.804679 -3.35328,0.791726 -3.35328,-2.808097 0,-2.126152 -0.0918,-2.818258 -0.41599,-3.142444 -0.57251,-0.572502 -0.66714,-0.553762 -3.20963,0.637687 -3.12072,1.462427 -3.15265,1.438849 -3.7884,-2.773474 -0.45177,-2.993304 -1.1334,-3.175359 -3.96306,-1.058333 -1.0698,0.800361 -2.07299,1.453274 -2.22932,1.451074 -0.62635,-0.0089 -0.94954,-0.49949 -1.73788,-2.637565 -0.45275,-1.227925 -0.95071,-2.385903 -1.10639,-2.573487 -0.61809,-0.744752 -1.4101,-0.350487 -3.26079,1.623157 -2.26847,2.419184 -2.45501,2.391864 -4.219895,-0.618567 -1.086609,-1.853459 -1.351451,-2.139404 -1.981791,-2.139404 z"
       inkscape:label="main-body"
       transform="translate(-36.199884,-63.372944)"
       sodipodi:nodetypes="sssssssssssssssssssccsscccssssssccccssssssssscsscscsssssscccccsssssssssscscccsssssssccccssssscssssss" /><path
       id="path1004-7-2-8"
       style="display:inline;opacity:1;fill:#000000;stroke:none;stroke-width:1.51037;stroke-linecap:round;stroke-linejoin:round;paint-order:markers fill stroke"
       inkscape:transform-center-x="7.6109534"
       inkscape:transform-center-y="-5.4179668"
       d="m 59.259432,54.824561 a 4.7464843,5.6517711 0 0 0 4.530473,3.974951 4.7464843,5.6517711 0 0 0 4.530473,-3.974951 z"
       inkscape:label="mouth" /><ellipse
       style="display:inline;fill:#000000;stroke:none;stroke-width:1.51037;stroke-linecap:round;stroke-linejoin:round;paint-order:markers fill stroke"
       id="path1004-7-2"
       cx="54.824661"
       cy="46.375217"
       rx="4.7464843"
       ry="5.6517711"
       inkscape:label="left-eye" /><ellipse
       style="display:inline;fill:#000000;stroke:none;stroke-width:1.51037;stroke-linecap:round;stroke-linejoin:round;paint-order:markers fill stroke"
       id="path1004-7"
       cx="71.923988"
       cy="46.398701"
       rx="4.7464843"
       ry="5.6517711"
       inkscape:label="right-eye" /><ellipse
       style="opacity:1;fill:#ffffff;stroke:none;stroke-width:1.17946;stroke-linecap:round;stroke-linejoin:round;paint-order:markers fill stroke"
       id="path2172"
       cx="53.534676"
       cy="44.27898"
       rx="1.9994878"
       ry="2.8057327"
       inkscape:label="left-highlight" /><ellipse
       style="fill:#ffffff;stroke:none;stroke-width:1.17946;stroke-linecap:round;stroke-linejoin:round;paint-order:markers fill stroke"
       id="path2172-8"
       cx="70.756065"
       cy="44.182228"
       rx="1.9994878"
       ry="2.8057327"
       inkscape:label="right-highlight" />
  </g>
</svg>
